<svg width="36" height="36" viewBox="0 0 36 36" fill="none" xmlns="http://www.w3.org/2000/svg">
<g clip-path="url(#clip0_67_333)">
<path d="M15.1875 20.25H5.625C5.32663 20.25 5.04048 20.1315 4.82951 19.9205C4.61853 19.7095 4.5 19.4234 4.5 19.125V10.125C4.5 9.82663 4.61853 9.54048 4.82951 9.32951C5.04048 9.11853 5.32663 9 5.625 9H14.0625C14.3609 9 14.647 9.11853 14.858 9.32951C15.069 9.54048 15.1875 9.82663 15.1875 10.125V22.5C15.1875 23.9918 14.5949 25.4226 13.54 26.4775C12.4851 27.5324 11.0543 28.125 9.5625 28.125M31.5 20.25H21.9375C21.6391 20.25 21.353 20.1315 21.142 19.9205C20.931 19.7095 20.8125 19.4234 20.8125 19.125V10.125C20.8125 9.82663 20.931 9.54048 21.142 9.32951C21.353 9.11853 21.6391 9 21.9375 9H30.375C30.6734 9 30.9595 9.11853 31.1705 9.32951C31.3815 9.54048 31.5 9.82663 31.5 10.125V22.5C31.5 23.9918 30.9074 25.4226 29.8525 26.4775C28.7976 27.5324 27.3668 28.125 25.875 28.125" stroke="#C13336" stroke-width="4" stroke-linecap="round" stroke-linejoin="round"/>
</g>
<defs>
<clipPath id="clip0_67_333">
<rect width="36" height="36" fill="white"/>
</clipPath>
</defs>
</svg>
