<svg width="60" height="60" viewBox="0 0 60 60" fill="none" xmlns="http://www.w3.org/2000/svg">
<rect width="60" height="60" rx="18" fill="#C13336"/>
<g clip-path="url(#clip0_67_287)">
<path d="M27.1875 32.25H17.625C17.3266 32.25 17.0405 32.1315 16.8295 31.9205C16.6185 31.7095 16.5 31.4234 16.5 31.125V22.125C16.5 21.8266 16.6185 21.5405 16.8295 21.3295C17.0405 21.1185 17.3266 21 17.625 21H26.0625C26.3609 21 26.647 21.1185 26.858 21.3295C27.069 21.5405 27.1875 21.8266 27.1875 22.125V34.5C27.1875 35.9918 26.5949 37.4226 25.54 38.4775C24.4851 39.5324 23.0543 40.125 21.5625 40.125M43.5 32.25H33.9375C33.6391 32.25 33.353 32.1315 33.142 31.9205C32.931 31.7095 32.8125 31.4234 32.8125 31.125V22.125C32.8125 21.8266 32.931 21.5405 33.142 21.3295C33.353 21.1185 33.6391 21 33.9375 21H42.375C42.6734 21 42.9595 21.1185 43.1705 21.3295C43.3815 21.5405 43.5 21.8266 43.5 22.125V34.5C43.5 35.9918 42.9074 37.4226 41.8525 38.4775C40.7976 39.5324 39.3668 40.125 37.875 40.125" stroke="white" stroke-width="4" stroke-linecap="round" stroke-linejoin="round"/>
</g>
<defs>
<clipPath id="clip0_67_287">
<rect width="36" height="36" fill="white" transform="translate(12 12)"/>
</clipPath>
</defs>
</svg>
