<svg width="32" height="33" viewBox="0 0 32 33" fill="none" xmlns="http://www.w3.org/2000/svg">
<path d="M23.3893 29.5167H8.47266C6.79208 29.5167 5.2046 28.7402 4.17214 27.4128C3.13928 26.0843 2.77787 24.3545 3.19216 22.7246L6.21527 10.3835C6.32746 9.92889 6.74163 9.61412 7.20972 9.62776H23.8667C24.3178 9.60711 24.7261 9.89297 24.8611 10.3239L28.6201 22.4163C29.1414 24.0823 28.8346 25.897 27.7947 27.299C26.7715 28.7075 25.1301 29.5337 23.3893 29.5167ZM7.95555 11.6166L5.0816 23.2019C4.8223 24.2376 5.05264 25.3349 5.70647 26.1789C6.36031 27.0229 7.3653 27.5201 8.43288 27.5278H23.3496C24.4474 27.5295 25.4794 27.0043 26.1241 26.1157C26.7872 25.222 26.9831 24.0652 26.6511 23.0031L23.1507 11.6166H7.95555Z" fill="white"/>
<path d="M19.889 17.5833C19.3398 17.5833 18.8945 17.1381 18.8945 16.5889V8.63331C18.8945 6.98566 17.5588 5.64998 15.9112 5.64998C14.2635 5.64998 12.9279 6.98566 12.9279 8.63331V16.5889C12.9279 17.1381 12.4826 17.5833 11.9334 17.5833C11.3842 17.5833 10.939 17.1381 10.939 16.5889V8.63331C10.939 5.88723 13.1651 3.66109 15.9112 3.66109C18.6573 3.66109 20.8834 5.88723 20.8834 8.63331V16.5889C20.8834 17.1381 20.4382 17.5833 19.889 17.5833Z" fill="white"/>
</svg>
