<svg width="35" height="35" viewBox="0 0 35 35" fill="none" xmlns="http://www.w3.org/2000/svg">
<path d="M4.17301 21.4593L1.71175 18.9981C0.707818 17.9941 0.707818 16.3425 1.71175 15.3385L4.17301 12.8772C4.59402 12.4562 4.93406 11.6304 4.93406 11.0475V7.56603C4.93406 6.14108 6.09993 4.97526 7.52488 4.97526H11.0063C11.5892 4.97526 12.415 4.63526 12.836 4.21425L15.2973 1.75295C16.3013 0.749017 17.9529 0.749017 18.9569 1.75295L21.4181 4.21425C21.8391 4.63526 22.6649 4.97526 23.2478 4.97526H26.7293C28.1542 4.97526 29.3201 6.14108 29.3201 7.56603V11.0475C29.3201 11.6304 29.6601 12.4562 30.0811 12.8772L32.5424 15.3385C33.5463 16.3425 33.5463 17.9941 32.5424 18.9981L30.0811 21.4593C29.6601 21.8803 29.3201 22.7061 29.3201 23.2891V26.7704C29.3201 28.1953 28.1542 29.3613 26.7293 29.3613H23.2478C22.6649 29.3613 21.8391 29.7013 21.4181 30.1223L18.9569 32.5836C17.9529 33.5875 16.3013 33.5875 15.2973 32.5836L12.836 30.1223C12.415 29.7013 11.5892 29.3613 11.0063 29.3613H7.52488C6.09993 29.3613 4.93406 28.1953 4.93406 26.7704V23.2891C4.93406 22.69 4.59402 21.8642 4.17301 21.4593Z" fill="#DD3842" stroke="#DD3842" stroke-width="1.5" stroke-linecap="round" stroke-linejoin="round"/>
</svg>
