<svg width="16" height="17" viewBox="0 0 16 17" fill="none" xmlns="http://www.w3.org/2000/svg">
<path d="M15.7085 5.8053L14.2316 3.83707C14.174 3.75978 14.1056 3.69283 14.0347 3.62883V1.27611C14.0347 0.732608 13.5936 0.291504 13.0501 0.291504H3.204C2.66001 0.291504 2.2194 0.732608 2.2194 1.27611V3.62932C2.1485 3.69283 2.08007 3.75929 2.02248 3.83609L0.546057 5.80481C0.355044 6.05884 0.250183 6.37342 0.250183 6.69145V7.18375C0.250183 7.99802 0.912823 8.66066 1.72709 8.66066V15.0606C1.72709 15.6041 2.1682 16.0452 2.7117 16.0452H13.5424C14.0859 16.0452 14.527 15.6041 14.527 15.0606V8.66066C15.3413 8.66066 16.0039 7.99802 16.0039 7.18375V6.69145C16.0039 6.37342 15.899 6.05884 15.7085 5.8053ZM13.0501 1.27611V3.24532H3.204V1.27611H13.0501ZM5.26823 7.67605H3.20597L5.17519 4.22993H6.25284L5.26823 7.67605ZM6.76533 4.22993H7.88089V7.67605H5.78072L6.76533 4.22993ZM8.37319 4.22993H9.48875L10.4734 7.67605H8.37319V4.22993ZM10.0003 4.22993H11.0779L13.0471 7.67605H10.9849L10.0003 4.22993ZM1.23479 7.18375V6.69145C1.23479 6.58462 1.26925 6.48123 1.33325 6.39607L2.81016 4.42685C2.90321 4.30279 3.04893 4.22993 3.204 4.22993H4.60805L2.63884 7.67605H1.72709C1.45534 7.67605 1.23479 7.456 1.23479 7.18375ZM10.0963 15.0606H6.40398V10.1376H10.0963V15.0606ZM13.5424 15.0606H10.5886V10.1376C10.5886 9.86533 10.3675 9.64527 10.0963 9.64527H6.40398C6.13222 9.64527 5.91167 9.86533 5.91167 10.1376V15.0606H2.7117V8.66066H13.5424V15.0606ZM15.0193 7.18375C15.0193 7.456 14.7992 7.67605 14.527 7.67605H13.6143L11.645 4.22993H13.0501C13.2047 4.22993 13.3509 4.30279 13.4434 4.42685L14.9203 6.39607C14.9848 6.48123 15.0193 6.58462 15.0193 6.69145V7.18375Z" fill="white"/>
</svg>
